{
    "asset": {
        "generator": "COLLADA2GLTF",
        "version": "2.0"
    },
    "scenes": [
        {
            "nodes": [
                0
            ]
        }
    ],
    "scene": 0,
    "nodes": [
        {
            "children": [
                1
            ],
            "matrix": [
                1.0,
                0.0,
                0.0,
                0.0,
                0.0,
                0.0,
                -1.0,
                0.0,
                0.0,
                1.0,
                0.0,
                0.0,
                0.0,
                0.0,
                0.0,
                1.0
            ],
            "name": "Z_UP"
        },
        {
            "mesh": 0,
            "matrix": [
                1.8252300024032593,
                0.0,
                0.0,
                0.0,
                0.0,
                1.8252300024032593,
                0.0,
                0.0,
                0.0,
                0.0,
                1.8252300024032593,
                0.0,
                -0.005500515922904015,
                3.1902990341186525,
                0.0,
                1.0
            ],
            "name": "head"
        }
    ],
    "meshes": [
        {
            "primitives": [
                {
                    "attributes": {
                        "NORMAL": 1,
                        "POSITION": 2
                    },
                    "indices": 0,
                    "mode": 4,
                    "material": 0
                }
            ],
            "name": "Sphere"
        }
    ],
    "accessors": [
        {
            "bufferView": 0,
            "byteOffset": 0,
            "componentType": 5123,
            "count": 125910,
            "max": [
                21086
            ],
            "min": [
                0
            ],
            "type": "SCALAR"
        },
        {
            "bufferView": 1,
            "byteOffset": 0,
            "componentType": 5126,
            "count": 21087,
            "max": [
                0.9999966025352478,
                1.0,
                1.0
            ],
            "min": [
                -0.9999966025352478,
                -1.0,
                -1.0
            ],
            "type": "VEC3"
        },
        {
            "bufferView": 1,
            "byteOffset": 253044,
            "componentType": 5126,
            "count": 21087,
            "max": [
                1.12049400806427,
                1.0000029802322388,
                0.9999971389770508
            ],
            "min": [
                -1.1144670248031617,
                -1.639070987701416,
                -1.0000020265579224
            ],
            "type": "VEC3"
        }
    ],
    "materials": [
        {
            "pbrMetallicRoughness": {
                "baseColorFactor": [
                    0.01818191073834896,
                    0.3641849160194397,
                    0.8007187843322754,
                    1.0
                ],
                "metallicFactor": 0.0
            },
            "emissiveFactor": [
                0.0,
                0.023833569139242173,
                0.09999998658895493
            ],
            "name": "Jelly_Material-effect"
        }
    ],
    "bufferViews": [
        {
            "buffer": 0,
            "byteOffset": 506088,
            "byteLength": 251820,
            "target": 34963
        },
        {
            "buffer": 0,
            "byteOffset": 0,
            "byteLength": 506088,
            "byteStride": 12,
            "target": 34962
        }
    ],
    "buffers": [
        {
            "byteLength": 757908,
            "uri": "data:application/octet-stream;base64,"
        }
    ]
}
