{
	"asset":{
		"copyright":"Fisilti App",
		"generator":"Khronos glTF Blender I/O v4.4.55",
		"version":"2.0"
	},
	"scene":0,
	"scenes":[
		{
			"name":"Scene",
			"nodes":[
				0
			]
		}
	],
	"nodes":[
		{
			"mesh":0,
			"name":"head",
			"rotation":[
				-0.7071069478988647,
				0,
				0,
				0.7071066498756409
			],
			"scale":[
				1.8252300024032593,
				1.8252302408218384,
				1.8252302408218384
			],
			"translation":[
				-0.005500515922904015,
				0,
				-3.1902995109558105
			]
		}
	],
	"materials":[
		{
			"emissiveFactor":[
				0,
				0.023833569139242172,
				0.09999998658895493
			],
			"name":"Jelly_Material-effect",
			"pbrMetallicRoughness":{
				"baseColorFactor":[
					0.01818191073834896,
					0.3641849160194397,
					0.8007187843322754,
					1
				],
				"metallicFactor":0
			}
		}
	],
	"meshes":[
		{
			"name":"Sphere",
			"primitives":[
				{
					"attributes":{
						"POSITION":0,
						"NORMAL":1
					},
					"indices":2,
					"material":0
				}
			]
		}
	],
	"accessors":[
		{
			"bufferView":0,
			"componentType":5126,
			"count":2175,
			"max":[
				1.1185539960861206,
				1.0000029802322388,
				0.997970461845398
			],
			"min":[
				-1.1160188913345337,
				-1.6396960020065308,
				-0.9977613091468811
			],
			"type":"VEC3"
		},
		{
			"bufferView":1,
			"componentType":5126,
			"count":2175,
			"type":"VEC3"
		},
		{
			"bufferView":2,
			"componentType":5123,
			"count":12591,
			"type":"SCALAR"
		}
	],
	"bufferViews":[
		{
			"buffer":0,
			"byteLength":26100,
			"byteOffset":0,
			"target":34962
		},
		{
			"buffer":0,
			"byteLength":26100,
			"byteOffset":26100,
			"target":34962
		},
		{
			"buffer":0,
			"byteLength":25182,
			"byteOffset":52200,
			"target":34963
		}
	],
	"buffers":[
		{
			"byteLength":77384,
			"uri":"jelly3.bin"
		}
	]
}
