{
  "asset": {
    "generator": "Khronos glTF Blender I/O v4.4.55",
    "version": "2.0"
  },
  "buffers": [
    {
      "uri": "data:application/octet-stream;base64,",
      "byteLength": 3079672
    }
  ],
  "bufferViews": [
    {
      "buffer": 0,
      "byteOffset": 0,
      "byteLength": 2696064,
      "byteStride": 32,
      "target": 34962
    },
    {
      "buffer": 0,
      "byteOffset": 2696064,
      "byteLength": 337344,
      "target": 34963
    },
    {
      "buffer": 0,
      "byteOffset": 3033408,
      "byteLength": 28096,
      "byteStride": 32,
      "target": 34962
    },
    {
      "buffer": 0,
      "byteOffset": 3061504,
      "byteLength": 18168,
      "target": 34963
    }
  ],
  "accessors": [
    {
      "bufferView": 0,
      "byteOffset": 0,
      "componentType": 5126,
      "normalized": false,
      "count": 84252,
      "min": [
        -2.0579936504364014,
        0.3075830936431885,
        -0.9322278499603271
      ],
      "max": [
        2.058211088180542,
        3.1494665145874023,
        0.9324091672897339
      ],
      "type": "VEC3"
    },
    {
      "bufferView": 0,
      "byteOffset": 12,
      "componentType": 5126,
      "normalized": false,
      "count": 84252,
      "min": [
        -7.041433811187744,
        -7.023120403289795,
        -7.019719123840332
      ],
      "max": [
        7.041241645812988,
        7.040768146514893,
        7.019322395324707
      ],
      "type": "VEC3"
    },
    {
      "bufferView": 0,
      "byteOffset": 24,
      "componentType": 5126,
      "normalized": false,
      "count": 84252,
      "min": [
        0.00021632405696436763,
        -0.000019550323486328125
      ],
      "max": [
        0.9997475147247314,
        1
      ],
      "type": "VEC2"
    },
    {
      "bufferView": 1,
      "byteOffset": 0,
      "componentType": 5125,
      "normalized": false,
      "count": 84336,
      "min": [
        0
      ],
      "max": [
        84251
      ],
      "type": "SCALAR"
    },
    {
      "bufferView": 2,
      "byteOffset": 0,
      "componentType": 5126,
      "normalized": false,
      "count": 878,
      "min": [
        -1.810768485069275,
        2.8749866485595703,
        -1.8111870288848877
      ],
      "max": [
        1.814166784286499,
        5.021242618560791,
        1.8175137042999268
      ],
      "type": "VEC3"
    },
    {
      "bufferView": 2,
      "byteOffset": 12,
      "componentType": 5126,
      "normalized": false,
      "count": 878,
      "min": [
        -0.5439927577972412,
        -0.5446847677230835,
        -0.5433919429779053
      ],
      "max": [
        0.5439103841781616,
        0.5446911454200745,
        0.544380247592926
      ],
      "type": "VEC3"
    },
    {
      "bufferView": 2,
      "byteOffset": 24,
      "componentType": 5126,
      "normalized": false,
      "count": 878,
      "min": [
        0,
        -1.1920928955078125e-7
      ],
      "max": [
        1.0000001192092896,
        0.5623931288719177
      ],
      "type": "VEC2"
    },
    {
      "bufferView": 3,
      "byteOffset": 0,
      "componentType": 5125,
      "normalized": false,
      "count": 4542,
      "min": [
        0
      ],
      "max": [
        877
      ],
      "type": "SCALAR"
    }
  ],
  "scene": 0,
  "scenes": [
    {
      "nodes": [
        0,
        1
      ],
      "name": "jellyfish"
    }
  ],
  "nodes": [
    {
      "extensions": {
        "KHR_node_visibility": {
          "visible": true
        }
      },
      "mesh": 0
    },
    {
      "extensions": {
        "KHR_node_visibility": {
          "visible": true
        }
      },
      "mesh": 1
    }
  ],
  "meshes": [
    {
      "primitives": [
        {
          "material": 0,
          "mode": 4,
          "attributes": {
            "POSITION": 0,
            "NORMAL": 1,
            "TEXCOORD_0": 2
          },
          "indices": 3
        }
      ]
    },
    {
      "primitives": [
        {
          "material": 1,
          "mode": 4,
          "attributes": {
            "POSITION": 4,
            "NORMAL": 5,
            "TEXCOORD_0": 6
          },
          "indices": 7
        }
      ]
    }
  ],
  "materials": [
    {
      "name": "Material.002",
      "pbrMetallicRoughness": {
        "baseColorFactor": [
          0,
          0.5411764705882353,
          1,
          1
        ],
        "metallicFactor": 0,
        "roughnessFactor": 0.7363636493682861
      },
      "emissiveFactor": [
        0.050980392156862744,
        0.41568627450980394,
        0.7215686274509804
      ],
      "alphaMode": "OPAQUE",
      "doubleSided": true
    },
    {
      "name": "Material.001",
      "pbrMetallicRoughness": {
        "baseColorFactor": [
          0,
          0.4470588235294118,
          1,
          0.75
        ],
        "metallicFactor": 0,
        "roughnessFactor": 0.699999988079071
      },
      "emissiveFactor": [
        0,
        0.4470588235294118,
        1
      ],
      "alphaMode": "OPAQUE",
      "doubleSided": false
    }
  ],
  "extensionsUsed": [
    "KHR_node_visibility"
  ]
}